<svg width="482" height="578" viewBox="0 0 482 578" fill="none" xmlns="http://www.w3.org/2000/svg">
<g opacity="0.8">
<mask id="path-1-outside-1_437_2011" maskUnits="userSpaceOnUse" x="0" y="0" width="482" height="578" fill="black">
<rect fill="white" width="482" height="578"/>
<path d="M92.3241 148.598C53.2685 179.418 24.7563 221.614 10.7322 269.348C-3.29189 317.083 -2.13477 367.995 14.0435 415.043C30.2218 462.091 60.6215 502.948 101.037 531.962C141.452 560.977 189.886 576.714 239.637 576.996C289.388 577.279 337.997 562.093 378.739 533.54C419.482 504.987 450.344 464.477 467.055 417.616C483.767 370.755 485.502 319.859 472.021 271.968C458.54 224.078 430.51 181.561 391.807 150.299L331.484 224.979C354.706 243.736 371.524 269.247 379.613 297.981C387.701 326.715 386.66 357.253 376.633 385.37C366.606 413.486 348.089 437.792 323.644 454.924C299.198 472.056 270.033 481.167 240.182 480.998C210.332 480.828 181.271 471.386 157.022 453.977C132.773 436.569 114.533 412.055 104.826 383.826C95.1191 355.597 94.4249 325.05 102.839 296.409C111.254 267.768 128.361 242.451 151.794 223.959L92.3241 148.598Z"/>
<path fill-rule="evenodd" clip-rule="evenodd" d="M346.215 8.92231C348.882 5.80829 346.669 1 342.569 1H228.362C226.344 1 224.541 2.26273 223.851 4.15963L163.342 170.56C162.204 173.69 164.522 177 167.853 177H219.016C222.087 177 224.368 179.844 223.702 182.841L198.316 297.08C197.173 302.222 203.949 305.184 206.948 300.853L331.785 120.532C333.989 117.349 331.711 113 327.839 113H267.511C263.411 113 261.198 108.192 263.865 105.078L346.215 8.92231Z"/>
</mask>
<g filter="url(#filter0_ii_437_2011)">
<path d="M92.3241 148.598C53.2685 179.418 24.7563 221.614 10.7322 269.348C-3.29189 317.083 -2.13477 367.995 14.0435 415.043C30.2218 462.091 60.6215 502.948 101.037 531.962C141.452 560.977 189.886 576.714 239.637 576.996C289.388 577.279 337.997 562.093 378.739 533.54C419.482 504.987 450.344 464.477 467.055 417.616C483.767 370.755 485.502 319.859 472.021 271.968C458.54 224.078 430.51 181.561 391.807 150.299L331.484 224.979C354.706 243.736 371.524 269.247 379.613 297.981C387.701 326.715 386.66 357.253 376.633 385.37C366.606 413.486 348.089 437.792 323.644 454.924C299.198 472.056 270.033 481.167 240.182 480.998C210.332 480.828 181.271 471.386 157.022 453.977C132.773 436.569 114.533 412.055 104.826 383.826C95.1191 355.597 94.4249 325.05 102.839 296.409C111.254 267.768 128.361 242.451 151.794 223.959L92.3241 148.598Z" fill="white" fill-opacity="0.05"/>
<path fill-rule="evenodd" clip-rule="evenodd" d="M346.215 8.92231C348.882 5.80829 346.669 1 342.569 1H228.362C226.344 1 224.541 2.26273 223.851 4.15963L163.342 170.56C162.204 173.69 164.522 177 167.853 177H219.016C222.087 177 224.368 179.844 223.702 182.841L198.316 297.08C197.173 302.222 203.949 305.184 206.948 300.853L331.785 120.532C333.989 117.349 331.711 113 327.839 113H267.511C263.411 113 261.198 108.192 263.865 105.078L346.215 8.92231Z" fill="white" fill-opacity="0.05"/>
</g>
<path d="M92.3241 148.598L93.1091 147.978L92.4896 147.193L91.7046 147.813L92.3241 148.598ZM391.807 150.299L392.435 149.521L391.657 148.892L391.029 149.67L391.807 150.299ZM331.484 224.979L330.706 224.351L330.078 225.129L330.856 225.757L331.484 224.979ZM151.794 223.959L152.414 224.744L153.199 224.124L152.579 223.339L151.794 223.959ZM263.865 105.078L264.624 105.728L263.865 105.078ZM331.785 120.532L330.963 119.963L331.785 120.532ZM198.316 297.08L197.339 296.863L198.316 297.08ZM206.948 300.853L207.77 301.422L206.948 300.853ZM223.702 182.841L224.678 183.058L223.702 182.841ZM163.342 170.56L164.282 170.901L163.342 170.56ZM223.851 4.15963L222.911 3.81789L223.851 4.15963ZM346.215 8.92231L345.456 8.27183L346.215 8.92231ZM91.7046 147.813C52.4862 178.761 23.8553 221.133 9.77278 269.066L11.6917 269.63C25.6574 222.095 54.0507 180.075 92.9435 149.383L91.7046 147.813ZM9.77278 269.066C-4.30977 317 -3.14783 368.125 13.0978 415.368L14.9891 414.718C-1.12171 367.866 -2.274 317.166 11.6917 269.63L9.77278 269.066ZM13.0978 415.368C29.3435 462.612 59.8699 503.64 100.454 532.775L101.62 531.15C61.373 502.257 31.1 461.57 14.9891 414.718L13.0978 415.368ZM100.454 532.775C141.038 561.91 189.673 577.712 239.631 577.996L239.642 575.996C190.099 575.715 141.867 560.043 101.62 531.15L100.454 532.775ZM239.631 577.996C289.589 578.28 338.401 563.031 379.313 534.359L378.165 532.721C337.593 561.155 289.186 576.278 239.642 575.996L239.631 577.996ZM379.313 534.359C420.225 505.687 451.216 465.008 467.997 417.952L466.113 417.28C449.471 463.946 418.738 504.287 378.165 532.721L379.313 534.359ZM467.997 417.952C484.779 370.896 486.521 319.788 472.984 271.698L471.059 272.239C484.484 319.93 482.755 370.615 466.113 417.28L467.997 417.952ZM472.984 271.698C459.447 223.607 431.299 180.913 392.435 149.521L391.178 151.077C429.72 182.208 457.634 224.549 471.059 272.239L472.984 271.698ZM391.029 149.67L330.706 224.351L332.262 225.608L392.585 150.927L391.029 149.67ZM330.856 225.757C353.916 244.384 370.618 269.717 378.65 298.252L380.575 297.71C372.431 268.776 355.495 243.089 332.112 224.201L330.856 225.757ZM378.65 298.252C386.683 326.787 385.649 357.113 375.691 385.034L377.575 385.706C387.672 357.394 388.72 326.644 380.575 297.71L378.65 298.252ZM375.691 385.034C365.734 412.955 347.345 437.092 323.07 454.105L324.217 455.743C348.833 438.492 367.478 414.018 377.575 385.706L375.691 385.034ZM323.07 454.105C298.794 471.118 269.831 480.166 240.188 479.998L240.176 481.998C270.234 482.168 299.602 472.994 324.217 455.743L323.07 454.105ZM240.188 479.998C210.545 479.829 181.686 470.453 157.605 453.165L156.439 454.79C180.857 472.319 210.119 481.827 240.176 481.998L240.188 479.998ZM157.605 453.165C133.524 435.877 115.411 411.533 105.772 383.501L103.88 384.151C113.655 412.576 132.021 437.26 156.439 454.79L157.605 453.165ZM105.772 383.501C96.1322 355.468 95.4428 325.133 103.799 296.691L101.88 296.127C93.407 324.967 94.1061 355.726 103.88 384.151L105.772 383.501ZM103.799 296.691C112.155 268.249 129.143 243.107 152.414 224.744L151.175 223.174C127.579 241.794 110.353 267.288 101.88 296.127L103.799 296.691ZM152.579 223.339L93.1091 147.978L91.539 149.217L151.009 224.578L152.579 223.339ZM342.569 0H228.362V2H342.569V0ZM222.911 3.81789L162.402 170.218L164.282 170.901L224.791 4.50138L222.911 3.81789ZM167.853 178H219.016V176H167.853V178ZM222.726 182.624L197.339 296.863L199.292 297.297L224.678 183.058L222.726 182.624ZM207.77 301.422L332.608 121.101L330.963 119.963L206.126 300.284L207.77 301.422ZM327.839 112H267.511V114H327.839V112ZM264.624 105.728L346.975 9.57279L345.456 8.27183L263.105 104.427L264.624 105.728ZM267.511 112C264.265 112 262.513 108.193 264.624 105.728L263.105 104.427C259.883 108.19 262.556 114 267.511 114V112ZM332.608 121.101C335.271 117.255 332.517 112 327.839 112V114C330.904 114 332.708 117.443 330.963 119.963L332.608 121.101ZM197.339 296.863C195.959 303.077 204.147 306.656 207.77 301.422L206.126 300.284C203.752 303.713 198.387 301.368 199.292 297.297L197.339 296.863ZM219.016 178C221.447 178 223.253 180.251 222.726 182.624L224.678 183.058C225.483 179.436 222.727 176 219.016 176V178ZM162.402 170.218C161.027 174.001 163.828 178 167.853 178V176C165.216 176 163.381 173.38 164.282 170.901L162.402 170.218ZM228.362 0C225.923 0 223.745 1.52579 222.911 3.81789L224.791 4.50138C225.337 2.99966 226.764 2 228.362 2V0ZM342.569 2C345.815 2 347.567 5.80656 345.456 8.27183L346.975 9.57279C350.197 5.81001 347.524 0 342.569 0V2Z" fill="url(#paint0_linear_437_2011)" mask="url(#path-1-outside-1_437_2011)"/>
</g>
<defs>
<filter id="filter0_ii_437_2011" x="0" y="0" width="482" height="599" filterUnits="userSpaceOnUse" color-interpolation-filters="sRGB">
<feFlood flood-opacity="0" result="BackgroundImageFix"/>
<feBlend mode="normal" in="SourceGraphic" in2="BackgroundImageFix" result="shape"/>
<feColorMatrix in="SourceAlpha" type="matrix" values="0 0 0 0 0 0 0 0 0 0 0 0 0 0 0 0 0 0 127 0" result="hardAlpha"/>
<feOffset dy="21"/>
<feGaussianBlur stdDeviation="20"/>
<feComposite in2="hardAlpha" operator="arithmetic" k2="-1" k3="1"/>
<feColorMatrix type="matrix" values="0 0 0 0 0.0300735 0 0 0 0 0.158281 0 0 0 0 0.158281 0 0 0 0.02 0"/>
<feBlend mode="normal" in2="shape" result="effect1_innerShadow_437_2011"/>
<feColorMatrix in="SourceAlpha" type="matrix" values="0 0 0 0 0 0 0 0 0 0 0 0 0 0 0 0 0 0 127 0" result="hardAlpha"/>
<feOffset dy="16"/>
<feGaussianBlur stdDeviation="12"/>
<feComposite in2="hardAlpha" operator="arithmetic" k2="-1" k3="1"/>
<feColorMatrix type="matrix" values="0 0 0 0 0.0300735 0 0 0 0 0.158281 0 0 0 0 0.158281 0 0 0 0.05 0"/>
<feBlend mode="normal" in2="effect1_innerShadow_437_2011" result="effect2_innerShadow_437_2011"/>
</filter>
<linearGradient id="paint0_linear_437_2011" x1="36" y1="50" x2="462" y2="516" gradientUnits="userSpaceOnUse">
<stop stop-color="white" stop-opacity="0.1"/>
<stop offset="1" stop-color="#041212" stop-opacity="0.5"/>
</linearGradient>
</defs>
</svg>
