<svg width="358" height="430" viewBox="0 0 358 430" fill="none" xmlns="http://www.w3.org/2000/svg">
<g opacity="0.8" filter="url(#filter0_ii_14_583)">
<path d="M68.1125 110.186C38.9836 133.194 17.7183 164.695 7.25862 200.329C-3.20103 235.964 -2.33802 273.972 9.72827 309.095C21.7946 344.217 44.4677 374.718 74.6109 396.378C104.754 418.038 140.877 429.786 177.983 429.997C215.089 430.208 251.343 418.872 281.731 397.556C312.118 376.24 335.135 345.999 347.6 311.016C360.064 276.033 361.358 238.037 351.303 202.285C341.249 166.534 320.342 134.794 291.477 111.456L246.486 167.207C263.806 181.209 276.349 200.254 282.382 221.705C288.415 243.156 287.638 265.953 280.16 286.943C272.681 307.933 258.871 326.077 240.638 338.867C222.406 351.656 200.654 358.458 178.39 358.332C156.126 358.205 134.452 351.156 116.367 338.16C98.2806 325.164 84.6767 306.864 77.437 285.79C70.1972 264.717 69.6794 241.912 75.9552 220.531C82.231 199.15 94.9901 180.25 112.468 166.445L68.1125 110.186Z" fill="#F8F8F8"/>
<path fill-rule="evenodd" clip-rule="evenodd" d="M257.473 5.91423C259.462 3.58952 257.812 0 254.754 0H169.574C168.069 0 166.724 0.94266 166.21 2.35875L121.08 126.581C120.231 128.918 121.96 131.389 124.444 131.389H162.604C164.894 131.389 166.595 133.512 166.099 135.75L147.165 221.032C146.312 224.871 151.366 227.082 153.603 223.849L246.711 89.2341C248.355 86.8575 246.655 83.6111 243.767 83.6111H198.772C195.715 83.6111 194.064 80.0216 196.053 77.6969L257.473 5.91423Z" fill="#F8F8F8"/>
</g>
<defs>
<filter id="filter0_ii_14_583" x="0" y="0" width="358" height="451" filterUnits="userSpaceOnUse" color-interpolation-filters="sRGB">
<feFlood flood-opacity="0" result="BackgroundImageFix"/>
<feBlend mode="normal" in="SourceGraphic" in2="BackgroundImageFix" result="shape"/>
<feColorMatrix in="SourceAlpha" type="matrix" values="0 0 0 0 0 0 0 0 0 0 0 0 0 0 0 0 0 0 127 0" result="hardAlpha"/>
<feOffset dy="21"/>
<feGaussianBlur stdDeviation="20"/>
<feComposite in2="hardAlpha" operator="arithmetic" k2="-1" k3="1"/>
<feColorMatrix type="matrix" values="0 0 0 0 0.0300735 0 0 0 0 0.158281 0 0 0 0 0.158281 0 0 0 0.02 0"/>
<feBlend mode="normal" in2="shape" result="effect1_innerShadow_14_583"/>
<feColorMatrix in="SourceAlpha" type="matrix" values="0 0 0 0 0 0 0 0 0 0 0 0 0 0 0 0 0 0 127 0" result="hardAlpha"/>
<feOffset dy="16"/>
<feGaussianBlur stdDeviation="12"/>
<feComposite in2="hardAlpha" operator="arithmetic" k2="-1" k3="1"/>
<feColorMatrix type="matrix" values="0 0 0 0 0.0300735 0 0 0 0 0.158281 0 0 0 0 0.158281 0 0 0 0.05 0"/>
<feBlend mode="normal" in2="effect1_innerShadow_14_583" result="effect2_innerShadow_14_583"/>
</filter>
</defs>
</svg>
