<svg width="86" height="22" viewBox="0 0 86 22" fill="none" xmlns="http://www.w3.org/2000/svg">
<g clip-path="url(#clip0_233_2346)">
<path fill-rule="evenodd" clip-rule="evenodd" d="M10.5905 13.7856H10.5888C6.30572 13.7403 3.53806 11.7032 3.53806 8.59604C3.53806 5.48888 6.30572 3.45175 10.5888 3.40651C14.8738 3.45175 17.6411 5.48888 17.6411 8.59604C17.6411 11.7032 14.8738 13.7403 10.5905 13.7856ZM10.7155 0.898183C10.7144 0.89832 10.6292 0.896816 10.5863 0.895996C10.5424 0.896543 10.4572 0.898183 10.4572 0.898183C4.59395 0.993718 0.5 4.1591 0.5 8.5961C0.5 13.0331 4.59395 16.1986 10.4558 16.294C10.4558 16.294 10.5424 16.2948 10.5851 16.2946C10.6299 16.295 10.7157 16.294 10.7157 16.294C16.5774 16.1986 20.6712 13.0331 20.6712 8.5961C20.6712 4.1591 16.5774 0.993718 10.7155 0.898183Z" fill="black"/>
<path fill-rule="evenodd" clip-rule="evenodd" d="M75.4196 13.7856H75.4178C71.1349 13.7403 68.3672 11.7032 68.3672 8.59604C68.3672 5.48888 71.1349 3.45175 75.4178 3.40651C79.7028 3.45175 82.4702 5.48888 82.4702 8.59604C82.4702 11.7032 79.7028 13.7403 75.4196 13.7856ZM75.5446 0.898183C75.5435 0.89832 75.4585 0.896816 75.4153 0.895996C75.3716 0.896543 75.2863 0.898183 75.2863 0.898183C69.4231 0.993718 65.3291 4.1591 65.3291 8.5961C65.3291 13.0331 69.4231 16.1986 75.2851 16.294C75.2851 16.294 75.3716 16.2948 75.4142 16.2946C75.4592 16.295 75.5449 16.294 75.5449 16.294C81.4066 16.1986 85.5004 13.0331 85.5004 8.5961C85.5004 4.1591 81.4066 0.993718 75.5446 0.898183Z" fill="black"/>
<path fill-rule="evenodd" clip-rule="evenodd" d="M53.8491 13.7856H53.8474C49.5645 13.7403 46.7968 11.7032 46.7968 8.59604C46.7968 5.48888 49.5645 3.45175 53.8474 3.40651C58.1323 3.45175 60.8998 5.48888 60.8998 8.59604C60.8998 11.7032 58.1323 13.7403 53.8491 13.7856ZM53.9742 0.898183C53.9731 0.89832 53.8881 0.896816 53.8449 0.895996C53.8012 0.896543 53.7159 0.898183 53.7159 0.898183C50.9227 0.943695 48.5317 1.68638 46.7929 2.93081V1.61846H43.7588V21.1043H46.7929V14.2617C48.5314 15.506 50.922 16.2486 53.7146 16.294C53.7148 16.2942 53.8012 16.2948 53.8437 16.2946C53.8888 16.295 53.9744 16.294 53.9744 16.294C59.8361 16.1986 63.93 13.0331 63.93 8.5961C63.93 4.1591 59.8361 0.993718 53.9742 0.898183Z" fill="black"/>
<path fill-rule="evenodd" clip-rule="evenodd" d="M32.217 13.7856H32.2155C27.9324 13.7403 25.1647 11.7032 25.1647 8.59604C25.1647 5.48888 27.9324 3.45175 32.2155 3.40651C36.5004 3.45175 39.2678 5.48888 39.2678 8.59604C39.2678 11.7032 36.5004 13.7403 32.217 13.7856ZM32.3473 0.898183C32.346 0.89832 32.261 0.896816 32.218 0.895996C32.1741 0.896543 32.0888 0.898183 32.0888 0.898183C29.2956 0.943695 26.9046 1.68638 25.1658 2.93081V1.61846H22.1318V21.1043H25.1658V14.2617C26.9045 15.506 29.295 16.2486 32.0874 16.294C32.0874 16.294 32.1741 16.2948 32.2167 16.2946C32.2617 16.295 32.3474 16.294 32.3474 16.294C38.2091 16.1986 42.3029 13.0331 42.3029 8.5961C42.3029 4.1591 38.2091 0.993718 32.3473 0.898183Z" fill="black"/>
</g>
<defs>
<clipPath id="clip0_233_2346">
<rect width="85" height="22" fill="white" transform="translate(0.5)"/>
</clipPath>
</defs>
</svg>
