<svg width="103" height="20" viewBox="0 0 103 20" fill="none" xmlns="http://www.w3.org/2000/svg">
<path d="M45.203 14.8229C44.8986 14.8229 43.1406 16.7991 40.8921 16.9709C39.3031 17.0912 38.458 15.9399 38.458 15.1838C43.3434 14.4791 45.3549 12.5373 45.3549 10.0629C45.3549 8.39609 43.952 6.66049 41.6361 6.66049C36.5647 6.66049 35.2292 11.6267 35.0601 15.0635C34.9418 16.5756 34.0797 16.7991 33.4205 16.7647C32.7442 16.7304 32.2541 16.1288 32.3724 15.0462L33.3698 8.2243C33.3866 8.10401 33.6402 6.72928 32.6766 6.69488C31.6623 6.64318 30.3269 7.12435 30.0903 8.60227C29.8705 10.0458 29.7691 10.8706 29.5832 12.0391C29.4479 13.0185 29.262 14.0153 29.1773 14.9604C28.9915 15.8539 28.6872 16.3007 27.7576 16.3007C26.5742 16.1803 26.608 15.1323 26.7263 14.2385L27.5547 8.2414C27.5715 8.1211 27.825 6.72928 26.8615 6.69488C25.8474 6.64318 24.5118 7.14165 24.2751 8.61937C24.2244 8.98024 24.1736 9.30672 24.123 9.61612V9.59904C23.8863 11.3173 23.0917 12.0735 22.1789 11.8843C21.2661 11.6783 21.7226 9.13493 21.7394 9.10057C22.0438 6.96987 21.2999 6.21371 19.4741 7.00406C18.5107 7.41664 17.5134 8.49909 16.8539 9.30672L17.0061 8.2243C17.0232 8.10401 17.2767 6.72928 16.3132 6.69488C15.2988 6.64318 13.9635 7.12435 13.7267 8.60227C13.7267 8.65377 13.7098 8.70547 13.7098 8.75698C13.7098 8.75698 13.5914 9.39286 13.4393 9.94261C13.3718 10.166 13.3041 10.3894 13.2534 10.5441C13.0506 11.1455 12.8308 11.7297 12.5941 12.2968C12.3406 12.8638 12.0869 13.4138 11.7827 13.9465C11.6306 14.2044 11.4784 14.4621 11.3094 14.7027C11.1405 14.9432 10.9712 15.1838 10.7854 15.39C10.4304 15.8197 10.0248 16.1803 9.61891 16.4382C9.55138 16.4897 9.48372 16.5241 9.41604 16.5585C7.4552 17.4177 7.10018 15.4932 7.04953 15.2182C7.03251 15.0806 7.01569 14.9258 7.01569 14.7715C6.99867 14.5308 6.99867 14.273 7.01569 13.9982C7.01569 13.7403 7.0325 13.4653 7.06635 13.1903C7.11701 12.6406 7.2017 12.0735 7.31984 11.5064C7.42135 10.9908 7.53969 10.4925 7.67485 9.97705C8.82437 10.1143 9.90646 10.2177 10.2951 10.2347C11.2249 10.3035 11.7488 9.8223 11.8335 9.28964C11.9011 8.87725 11.8503 9.10057 12.0194 8.1211C12.273 6.67758 11.9686 6.67758 10.8023 6.67758C10.8023 6.67758 9.9739 6.67758 8.79052 6.67758C8.82437 6.60899 8.84139 6.5402 8.87522 6.4543C9.31473 5.37166 9.87256 4.39221 10.4472 3.30957C11.1741 1.91775 10.9882 1.59127 10.0922 0.817805C7.31984 -1.26137 5.91683 2.45042 5.59566 3.03459C5.34217 3.61896 5.10551 4.20312 4.85181 4.89048C4.63215 5.47484 4.42933 6.07611 4.26032 6.67758H1.33577C0.456762 6.67758 0.54126 7.50254 0.54126 7.50254C0.54126 8.2758 2.34993 8.96314 3.56712 9.32407C3.46582 9.8223 3.38112 10.3379 3.31364 10.8361C3.21212 11.5235 3.16147 12.2281 3.12762 12.9499C3.11081 13.6715 3.12762 14.4105 3.22915 15.1838C3.2798 15.5617 3.36429 15.957 3.48263 16.3694C3.55031 16.5756 3.61779 16.7818 3.68546 16.9881C3.76996 17.1944 3.87148 17.4006 3.97279 17.6068C4.19265 18.0191 4.4968 18.4316 4.88564 18.7924C5.27449 19.1533 5.74784 19.4454 6.238 19.6345C6.49169 19.7203 6.72836 19.7892 6.98185 19.8236C7.21852 19.858 7.52288 19.8751 7.74253 19.8751C8.18203 19.8751 8.63856 19.8063 9.06107 19.6859C9.48372 19.5657 9.88938 19.3594 10.2445 19.1362C10.5994 18.8956 10.9205 18.6377 11.1911 18.3456C11.7319 17.7786 12.1207 17.1427 12.4419 16.507C12.5096 16.3694 12.5773 16.2147 12.6448 16.0774C12.5264 17.3833 12.5941 18.5518 13.0675 19.1533C13.9972 20.3047 15.282 19.9265 15.4171 19.0158C15.5355 18.2082 15.7721 16.61 15.9582 15.4071C16.1778 14.1699 16.4145 13.4309 16.8539 12.4171C17.3782 11.2315 18.8489 10.2347 18.815 11.6267C18.7305 15.6994 21.7394 15.768 23.4806 13.9638C23.2272 15.7509 23.1594 17.4177 24.0891 18.5691C25.9147 20.803 28.6366 19.7033 30.0564 18.7236C31.3242 20.4765 34.6206 20.0983 36.0574 18.3285C37.0886 19.7719 39.0159 19.9265 40.4359 19.8751C44.5098 19.6516 47.0455 14.8229 45.203 14.8229ZM42.3799 10.252C42.6502 11.5235 40.8753 12.6062 38.4748 12.967C38.4748 12.4 38.6776 10.8705 40.0976 10.1317C41.0951 9.63348 42.2616 9.65056 42.3799 10.252Z" fill="#0087FF"/>
<path d="M70.8809 0.790029C70.8809 0.475289 71.1597 0.19165 71.4695 0.19165H74.0724C74.3823 0.19165 74.6611 0.475289 74.6611 0.790029V19.2847C74.6611 19.5999 74.3823 19.8833 74.0724 19.8833H71.4695C71.1597 19.8833 70.8809 19.5999 70.8809 19.2847V0.790029Z" fill="#0087FF"/>
<path d="M76.1357 0.790029C76.1357 0.475289 76.4146 0.19165 76.7242 0.19165H79.3271C79.637 0.19165 79.9158 0.475289 79.9158 0.790029V19.2847C79.9158 19.5999 79.637 19.8833 79.3271 19.8833H76.7242C76.4146 19.8833 76.1357 19.5999 76.1357 19.2847V0.790029Z" fill="#0087FF"/>
<path d="M89.4531 11.6933C89.4966 11.6933 89.5316 11.654 89.5264 11.6099C89.3942 10.4818 88.4221 9.55159 87.2732 9.55159C86.0638 9.55159 85.061 10.4509 84.869 11.6063C84.8614 11.6515 84.8973 11.6933 84.9425 11.6933H89.4531ZM87.3663 6.65381C90.5578 6.65381 93.1608 9.11055 93.1608 12.5125C93.1608 12.733 93.1294 13.1424 93.0979 13.3629C93.0673 13.6778 92.7886 13.8982 92.5098 13.8982H84.6588C84.6152 13.8982 84.58 13.9365 84.5844 13.9803C84.7164 15.2505 85.7925 16.6388 87.5515 16.6388C88.5125 16.6388 89.4112 16.2606 89.9685 15.8514C90.2784 15.6622 90.5578 15.5994 90.7745 15.8514L92.0441 17.3315C92.2617 17.5521 92.3246 17.8986 92.0135 18.1507C90.9912 19.127 89.4112 19.8832 87.397 19.8832C83.6785 19.8832 81.0449 16.8905 81.0449 13.2683C81.0449 9.70913 83.6785 6.65381 87.3663 6.65381Z" fill="#0087FF"/>
<path d="M94.248 7.58838C94.248 7.24192 94.5268 6.99 94.837 6.99H96.014C96.2927 6.99 96.4789 7.14737 96.5724 7.39948L96.9599 8.49573C96.9788 8.55114 97.0507 8.56329 97.0849 8.51612C97.5704 7.85409 98.6935 6.67505 100.508 6.67505C101.964 6.67505 103.265 7.14737 102.893 7.93483L101.747 9.98228C101.592 10.2659 101.281 10.3918 101.034 10.2659C100.941 10.2342 100.476 10.0766 100.136 10.0766C99.1251 10.0766 98.4444 10.6418 98.109 11.0894C97.9921 11.2467 97.9355 11.4422 97.9355 11.6394V19.2849C97.9355 19.6154 97.672 19.8835 97.3466 19.8835H94.837C94.5133 19.8835 94.248 19.614 94.248 19.2849V7.58838Z" fill="#0087FF"/>
<path d="M52.9873 19.8834C49.3678 19.8834 46.4229 16.9186 46.4229 13.2744C46.4229 9.69174 49.4436 6.66504 53.0187 6.66504C54.8772 6.66504 56.3739 7.39544 57.5947 8.89748C57.6814 9.01097 57.7194 9.149 57.6995 9.28406C57.6778 9.43008 57.5909 9.56379 57.4554 9.66045L56.0014 11.0728C55.9222 11.1443 55.8396 11.1802 55.7507 11.1802C55.6304 11.1802 55.4945 11.1129 55.3351 10.9738C54.7682 10.3241 53.9342 9.93154 53.1127 9.93154C51.3687 9.93154 49.95 11.4311 49.95 13.2744C49.95 15.1488 51.3253 16.6171 53.0813 16.6171C54.3783 16.6171 54.9966 16.0168 55.5419 15.4873L55.6519 15.3808C55.7696 15.261 55.9102 15.1959 56.0497 15.1959C56.1482 15.1959 56.2399 15.228 56.3232 15.2916L57.6679 16.4675C57.8851 16.6445 58.0945 16.9204 57.873 17.2418C56.7818 18.9711 55.0929 19.8834 52.9873 19.8834Z" fill="#0087FF"/>
<path d="M65.9887 15.8725C65.9887 15.9473 65.9685 16.0204 65.926 16.0817C65.6415 16.4919 64.7592 17.2056 63.8506 17.2056C62.8901 17.2056 62.2395 16.5127 62.2395 15.5677C62.2395 14.5598 63.0451 13.8668 64.2537 13.8668C64.9314 13.8668 65.5739 14.0819 65.8488 14.1877C65.9337 14.2201 65.9887 14.3029 65.9887 14.395V15.8725ZM64.6253 6.65381C62.6421 6.65381 60.6592 7.15764 60.4111 7.25198C60.1323 7.34674 59.8843 7.56714 59.9774 8.03946L60.2566 9.67748C60.3184 10.0871 60.5352 10.3705 60.969 10.2447C61.6817 10.0239 63.2931 9.77189 64.4395 9.77189C65.4553 9.77189 65.9604 10.2172 66.0406 11.4362C66.0569 11.6827 65.832 11.876 65.5956 11.8196C65.1813 11.7205 64.5231 11.5991 63.7887 11.5991C60.6282 11.5991 58.8311 13.3313 58.8311 15.5677C58.8311 18.2453 60.5352 19.8832 63.0143 19.8832C64.7839 19.8832 65.8954 19.0817 66.6165 18.4381C66.6538 18.4049 66.7107 18.4187 66.7304 18.4648L67.2206 19.6124C67.2906 19.7767 67.4502 19.8832 67.6265 19.8832H68.9546C69.1993 19.8832 69.3974 19.6818 69.3974 19.4331V18.9695V12.1343C69.3974 8.70107 68.4985 6.65381 64.6253 6.65381Z" fill="#0087FF"/>
</svg>
